<?xml version="1.0" encoding="UTF-8"?>
<svg id="Layer_1" data-name="Layer 1" xmlns="http://www.w3.org/2000/svg" viewBox="0 0 1080 1080">
  <defs>
    <style>
      .cls-1 {
        fill: #8baca1;
      }
    </style>
  </defs>
  <g>
    <path class="cls-1" d="M842.32,619.62c.6-.42,1.75-1.27,3.02-2.48,13.9-13.3,14.57-43.92,0-56.01-2.5-2.07-5.13-3.34-7.43-4.14-10.11-.04-20.21-.08-30.32-.12-.41,35.52-.81,71.03-1.22,106.55h14.61v-38.97h7.31c3.44,13,6.88,25.99,10.33,38.99,5.49,0,10.98-.02,16.46-.02-4.25-14.6-8.51-29.19-12.76-43.79ZM821.33,612.1c-3.12-1.75-.98-37.04-1.35-42.89l2.03-1.83c13.19-2.22,16.6,3.34,17.93,13.98,1.49,12.18,1.11,34.7-18.61,30.73Z"/>
    <path class="cls-1" d="M779.58,553.82c.77.91,1.94,2.55,2.44,4.87,1.09,5.07-1.93,9.08-2.44,9.74h-12.18v97.42h-17.05v-97.42h-14.61c-.62-.82-2.44-3.46-2.44-7.31,0-1.03.13-4.23,2.44-7.31h43.84Z"/>
    <path class="cls-1" d="M684.28,551.68c5.93-1,12.93-.11,17.99,3.34,6.23,4.26,16.35,23.52,8.24,27.75-16.24,8.46-9.43-11.55-18.13-16.63-12.88-7.51-14.06,17.81-10.76,26.58,3.76,9.96,18.89,15.26,24.92,22.58,9.55,11.61,11.57,41.93-4.01,49.6-23.61,11.62-40.29-7.9-39.32-30.71,20.4-10.51,12.47,3.91,17.48,14.27,7.33,15.16,19.69,1.56,17.23-13.58-2.07-12.72-17.21-18.31-24.28-26.86-12.74-15.39-13.92-52.17,10.64-56.33Z"/>
    <path class="cls-1" d="M551.14,651.11c-.53,1.16-1.32,2.52-2.59,4.03-7.37,8.81-20.71,8.75-27.12,8.27v-9.74c2.65.48,8.12,1.04,12.47-2.14.87-.63,2.6-1.74,3.66-4.27,4.92-11.79,5.09-61.03.56-72.99-3.39-8.96-8.77-7.14-16.68-7.06h-1.22c.41,32.07.81,64.13,1.22,96.2h-14.61v-106.55c4.87-.12,9.74-.27,14.61-.41,2.44-.07,4.87-.12,7.31-.19,4.09-.37,10.98-.32,16.61,3.92,5.6,4.24,8.04,10.5,9.01,23.43,1,13.47,1.63,56.84-3.21,67.51Z"/>
    <path class="cls-1" d="M599.36,648.78v.02h-1.22c.51-.07.9-.1,1.22-.02Z"/>
    <path class="cls-1" d="M599.36,553.82v94.96c-.32-.07-.71-.05-1.22.02h-15.83v-94.98c1.28-.81,3.82-2.17,7.31-2.44,4.88-.37,8.48,1.65,9.74,2.44Z"/>
    <path class="cls-1" d="M536.01,729.17c.02-2.68-1.8-4.96-4.03-5.07s-8.12,1.79-8.12,4.46v71.24c0,2.68-2.19,4.83-4.87,4.78l-124.21-2.26c-2.68-.05-4.92-2.28-4.99-4.96l-2.74-114.54c-.06-2.68-2.31-4.9-4.99-4.94l-80.85-1.16c-2.68-.04-4.91,2.12-4.95,4.8l-1.87,118.27c-.04,2.68-2.27,4.87-4.95,4.87h-37.14c-2.68,0-4.87-2.19-4.87-4.87l-.07-422.01c0-2.68,1.61-6.36,3.57-8.18l27.05-25.06c1.97-1.82,5.12-1.76,7.01.14l133.71,133.87c1.89,1.9,3.41,5.64,3.36,8.32,0,0-1.85,115.56-.51,175.93,4.87.2,9.75.41,9.75.41,2.68.11,4.82-1.99,4.77-4.67l-1.03-53.58c-.05-2.68.68-2.82,1.62-.31l14.85,39.59c.94,2.51,2.61,6.56,3.71,9,0,0,2.45,5.45,4.68,10.4,4.27-.08,7.93-.14,7.93-.14,2.68-.05,4.87-2.28,4.87-4.96v-96.81c0-2.68-2.19-4.87-4.87-4.87h-4.87c-2.68,0-4.87,2.19-4.87,4.87v52.97c0,2.68-.79,2.83-1.75.32l-20.86-54.23c-.96-2.5-1.77-6.74-1.79-9.42l-.56-73.04c-.02-2.68-1.57-6.43-3.45-8.34l-134.91-137.21c-1.88-1.91-1.84-5,.08-6.87l42.46-41.31c1.92-1.87,5.04-1.85,6.93.05l176.16,176.2c1.89,1.89,3.44,5.64,3.44,8.32v66.97c0,2.68,1.56,4.97,3.47,5.1s7-1.74,7.06-4.42l1.59-72.58c.06-2.68-1.44-6.42-3.33-8.32l-188.53-189.41c-1.89-1.9-5.02-1.93-6.95-.07l-52.15,50.18c-1.93,1.86-5.24,2.03-7.36.39l-38.63-30.02c-2.12-1.64-3.89-.8-3.95,1.88l-1.59,72.48c-.06,2.68-1.63,6.44-3.49,8.37l-76.47,79.02c-1.86,1.93-3.38,5.69-3.37,8.37l1.07,354.84c0,2.68,1.84,4.87,4.07,4.87s8.12-2.19,8.12-4.87l.02-347.63c0-2.68,1.54-6.43,3.43-8.33l62.53-63.12c1.89-1.9,3.43-1.27,3.43,1.41v417.06c0,2.68,2.19,4.88,4.87,4.88l292.93.66c2.68,0,4.88-2.18,4.9-4.86l.48-82.88ZM265.88,326.95c1.92,1.87,1.92,4.93,0,6.8l-16.16,15.75c-1.92,1.87-3.55,1.21-3.62-1.47l-.96-36.53c-.07-2.68,1.44-3.34,3.36-1.47l17.38,16.92ZM375.78,797.36c.07,2.68-2.06,4.9-4.74,4.95l-55.24.89c-2.68.04-4.87-2.11-4.87-4.79v-103.16c0-2.68,2.19-4.9,4.87-4.93l52.19-.66c2.68-.03,4.93,2.13,5,4.81l2.78,102.9Z"/>
    <path class="cls-1" d="M635.89,553.82v82.8c.05.98.71,18.2-12.18,26.79-13.08,8.71-32.51,3.47-38.97-7.31-1.57-2.62-2.19-5.26-2.44-7.31h17.05v-.02c1.84,4.45,6.52,7.01,11.11,6.2,4.9-.87,8.52-5.37,8.3-10.51l.07-18.7v-71.94c1.26-.79,4.87-2.81,9.74-2.44,3.48.27,6.03,1.63,7.31,2.44Z"/>
    <path class="cls-1" d="M599.36,648.78v.02h-1.22c.51-.07.9-.1,1.22-.02Z"/>
    <path class="cls-1" d="M387.48,665.85h-14.61v-112.03c.82-.62,3.46-2.44,7.31-2.44,1.03,0,4.23.13,7.31,2.44v112.03Z"/>
    <path class="cls-1" d="M929.85,556.25c-.49,1.63-.97,3.24-1.46,4.87l-19.73,65.76v36.53h-12.18c-.1-11.86-.22-23.75-.32-35.61-6.5-22.24-12.98-44.45-19.46-66.68-.49-1.63-.95-3.24-1.44-4.87.44-.41,2.9-2.63,6.6-2.44,3.12.16,5.13,1.93,5.67,2.44.27.81.54,1.62.82,2.44.27.81.55,1.62.82,2.44l14.61,43.84c4.16-14.61,8.35-29.22,12.52-43.84.46-1.63.93-3.24,1.39-4.87.31-.29,3.7-3.43,8.01-2.44,2.14.49,3.52,1.78,4.14,2.44Z"/>
  </g>
  <g>
    <path d="M628.36,692.56l-28.9-4.11c-3.55,3.95,12.76,23.08,1.05,20.64-6.5-1.35-6.11-19.81-12.34-24.86-5.48-4.44-19.78-6.25-26.91-8.2-6.93.71-21.3,30.22-41.52,32.88-22.17,2.92-55.24-16.91-71.12-31.81-10.76-10.1-32.6-37.29-6.72-41.88,37.7-6.69,77.71,20.04,112.79,28.23,5.01-1.61,23.71-49.71,26.73-58.11,2.47-6.86,3.33-15.31,5.65-21.21,3.36-8.57,7.45-6.11,8.35,1.95,1.9,17.01-.95,38.21-.18,55.96.48,11.08,3.68,23.04,2.41,34.78,2.92,8.28,31.36,3.73,30.72,15.74ZM562.26,667.76c5.95-.99,24.7,11.63,27.96,6.3l-1.13-66.18-25.9,53.62-.94,6.26ZM549.58,668.04c-26.18-7.7-52.78-20.35-79.82-24.48-8.43-1.29-27.41-4.58-33.36.75-4.34,13.26,34.69,39.78,45.2,45.25,11.13,5.8,30.64,13.9,42.6,9.36,7.17-2.73,30.05-23.28,25.38-30.88Z"/>
    <path d="M797.8,690.51c5.32-3.23,8.6-4.77,15.03-3.72,10.31,1.67,8.7,20.5,33.27,9.69,8.81-3.87,15.39-13.52,26.04-12.15-3.02,11.47-23.6,21.59-34.32,22.62-12.68,1.23-18.91-5.92-28.32-12.01-9.54.85-23.39,33.53-24.13,3.84-20.28,8.01-44.17,14.74-66.23,9.43-11.11-2.68-9.9-11.39-11.28-11.57-3.91-.49-22.07,8.85-29.36,9.9-17.15,2.48-30.66.52-27.42-20.16-20.18,9.27-31-13.36-11.38-22.72,5.31,4.22,3.52,11.24,1.07,16.5l18.7-1.12c5.01,3.31-3.98,14.87,1.83,18.83,6.06,4.13,31.63-3.79,38.4-7.32,12.5-6.52,23.91-21.56,39.2-18.63,11.89,2.27,6.71,22.9,1.1,12.89-.44-.79.75-3.28-1.3-4.8-9.2-6.83-26.93,10.13-20.61,18.92,4.04,5.61,35.04,3.01,42.53.92,34.25-9.56,27.82-21.14,38.22-48.55,3.09-8.15,8.64-23.03,16.27-26.79,12.88,2.16-2.25,36.71-5.53,43.73-1.74,3.73-14,19.9-11.79,22.28ZM801.94,665.72c8.46-7.43,12.13-22.13,12.35-33.05l-9.26,14.47-3.09,18.58Z"/>
  </g>
</svg>